<svg width="40" height="34" fill="none" xmlns="http://www.w3.org/2000/svg"><path d="M.001 19.319v12.499c0 .69.56 1.25 1.25 1.25h37.498c.69 0 1.25-.56 1.25-1.25v-12.5c0-.69-.56-1.25-1.25-1.25H1.251c-.69 0-1.25.56-1.25 1.25zm37.498 1.25v9.999h-3.75v-6.25h-2.5v6.25H27.5v-3.75H25v3.75h-3.75v-6.25h-2.5v6.25H15v-3.75h-2.5v3.75H8.75v-6.25h-2.5v6.25H2.502v-10H37.5zM31.625 2.694l4.112 4.125H4.263l4.113-4.112L6.613.944l-6.25 6.25a1.25 1.25 0 000 1.763l6.25 6.25 1.763-1.763-4.113-4.125h31.474l-4.113 4.112 1.763 1.763 6.25-6.25a1.25 1.25 0 000-1.762l-6.25-6.25-1.762 1.762z" fill="#FFB800"/></svg>