<svg width="34" height="40" fill="none" xmlns="http://www.w3.org/2000/svg"><path d="M30.037 12.295l1.568-1.568a1.56 1.56 0 10-2.207-2.207l-1.568 1.57a16.745 16.745 0 00-9.24-3.827V3.12h1.51a1.56 1.56 0 000-3.12h-6.14a1.56 1.56 0 100 3.121h1.508v3.14C6.932 7.039.126 14.212.126 23.096.125 32.438 7.685 40 17.03 40c9.343 0 16.905-7.56 16.905-16.905 0-3.991-1.374-7.77-3.899-10.8zM17.03 36.88c-7.6 0-13.784-6.183-13.784-13.784 0-7.6 6.184-13.784 13.784-13.784 7.6 0 13.784 6.183 13.784 13.784 0 7.6-6.183 13.784-13.784 13.784zm7.232-21.016c.61.61.61 1.598 0 2.207l-6.129 6.128a1.56 1.56 0 11-2.206-2.206l6.128-6.129a1.56 1.56 0 012.207 0z" fill="#FFB800"/></svg>