<svg width="47" height="35" fill="none" xmlns="http://www.w3.org/2000/svg"><path d="M45.616 1.755C42.767.484 39.916 0 37.067 0c-9.045 0-18.09 4.87-27.135 4.87-2.268 0-4.535-.306-6.804-1.072a2.373 2.373 0 00-.76-.126C1.104 3.672 0 4.712 0 6.157v24.786c0 .987.53 1.922 1.384 2.302C4.232 34.516 7.083 35 9.932 35c9.045 0 18.09-4.871 27.136-4.871 2.268 0 4.535.306 6.804 1.072.254.086.51.126.76.126 1.264 0 2.368-1.04 2.368-2.485V4.057c0-.987-.532-1.922-1.384-2.302zM3.525 7.83c1.477.393 3.02.591 4.606.697-.432 2.296-2.33 4.027-4.606 4.027V7.83zm0 22.265v-3.732c2.524 0 4.566 2.13 4.679 4.796a16.83 16.83 0 01-4.68-1.064zM23.5 25c-3.245 0-5.875-3.359-5.875-7.5 0-4.142 2.63-7.5 5.875-7.5 3.244 0 5.875 3.358 5.875 7.5 0 4.143-2.632 7.5-5.875 7.5zm19.974 2.17c-1.286-.343-2.622-.535-3.989-.66.431-2.037 2.02-3.583 3.99-3.85v4.51zm0-18.446c-2.268-.305-4.028-2.32-4.098-4.808 1.435.17 2.797.486 4.098.989v3.82z" fill="#FFB800"/></svg>