<svg width="24" height="24" fill="none" xmlns="http://www.w3.org/2000/svg"><path d="M21.474 11.384H24C24 4.894 19.108 0 12.619 0v2.53c5.13 0 8.855 3.723 8.855 8.854z" fill="#FFB800"/><path d="M12.632 7.09c2.656 0 3.79 1.135 3.79 3.796h2.525c0-4.08-2.242-6.325-6.315-6.325v2.53zm4.322 6.886a1.263 1.263 0 00-1.757.054l-3.022 3.114c-.728-.14-2.19-.596-3.696-2.1-1.506-1.51-1.962-2.978-2.097-3.702l3.106-3.028a1.266 1.266 0 00.054-1.76l-4.667-5.14a1.262 1.262 0 00-1.757-.11L.377 3.66c-.219.22-.349.511-.367.82-.018.317-.38 7.808 5.42 13.62 5.06 5.066 11.4 5.437 13.145 5.437.255 0 .412-.008.453-.01.31-.018.6-.149.819-.368l2.35-2.747a1.266 1.266 0 00-.11-1.76l-5.133-4.675z" fill="#FFB800"/></svg>