<svg width="28" height="36" fill="none" xmlns="http://www.w3.org/2000/svg"><path d="M27.943 33.946L25.662 1.793a.998.998 0 00-.994-.93H1.715a.998.998 0 00-.996 1.002v4.069c0 .552.446 1 .996 1h.258L.057 33.946a.999.999 0 00.994 1.072h3.984a.998.998 0 00.994-.93l.223-3.14h5.971l-.213 2.998a1 1 0 00.994 1.072h3.984a.998.998 0 00.994-.93l.436-6.141h7.102l.436 6.142a.998.998 0 001.064.927 1 1 0 00.923-1.07zM2.71 2.866h16.602v2.067H2.71V2.865zM13.217 16.94H7.248l.285-4.002H13.5l-.284 4.002zm-6.111 2.002h5.969l-.284 4.002H6.82l.285-4.002zm6.82-12.008l-.284 4.003H7.676l.285-4.003h5.967zM2.12 33.017L3.97 6.95l1.989.033-1.851 26.034H2.12zm4.274-4.07l.285-4.002h5.97l-.284 4.003h-5.97zm7.68 4.07l1.85-26.083h1.987l-1.85 26.083h-1.988zm4.486-7.071l1.348-19.012h.4a1 1 0 00.997-1V2.865h2.436l1.637 23.08h-6.819z" fill="#000"/></svg>