<svg width="34" height="28" fill="none" xmlns="http://www.w3.org/2000/svg"><path d="M29.452 15.917H22.95a.656.656 0 00-.655.658v6.566c0 .363.293.657.655.657h6.502a.656.656 0 00.654-.657v-6.566a.656.656 0 00-.654-.658zm-5.848 1.316h1.942v5.25h-1.942v-5.25zm5.193 5.25h-1.942v-5.25h1.942v5.25zM20.246 5.362h-6.492a.656.656 0 00-.654.657v6.566c0 .363.293.657.654.657h6.492a.656.656 0 00.655-.657V6.019a.656.656 0 00-.655-.657zm-5.837 1.315h1.936v5.25H14.41v-5.25zm5.182 5.25h-1.936v-5.25h1.936v5.25zm9.861-6.565H22.95a.656.656 0 00-.655.657v6.566c0 .363.293.657.655.657h6.502a.656.656 0 00.654-.657V6.019a.656.656 0 00-.654-.657zm-5.848 1.315h1.942v5.25h-1.942v-5.25zm5.193 5.25h-1.942v-5.25h1.942v5.25zm-17.675 3.99H4.62a.656.656 0 00-.655.658v6.566c0 .363.293.657.655.657h6.502a.656.656 0 00.654-.657v-6.566a.656.656 0 00-.654-.658zm-5.848 1.316h1.942v5.25H5.274v-5.25zm5.193 5.25H8.526v-5.25h1.941v5.25zm.655-17.121H4.62a.656.656 0 00-.655.657v6.566c0 .363.293.657.655.657h6.502a.656.656 0 00.654-.657V6.019a.656.656 0 00-.654-.657zM5.274 6.677h1.942v5.25H5.274v-5.25zm5.193 5.25H8.526v-5.25h1.941v5.25z" fill="#000"/><path d="M33.345 26.45h-.634V1.426a.656.656 0 00.573-.652.656.656 0 00-.655-.657H1.316a.656.656 0 00-.027 1.314v25.017H.655a.656.656 0 00-.655.658c0 .363.293.657.655.657h32.69a.656.656 0 00.655-.657.656.656 0 00-.655-.658zM2.598 1.432h28.804v25.016H20.9v-9.874a.656.656 0 00-.654-.658h-6.492a.656.656 0 00-.654.658v9.874H2.598V1.433zm16.993 25.016H14.41v-9.216h5.182v9.216z" fill="#000"/><path d="M4.62 4.063h24.705a.656.656 0 00.655-.657.656.656 0 00-.655-.658H4.62a.656.656 0 00-.655.658c0 .363.293.657.655.657z" fill="#000"/></svg>