<svg width="34" height="27" fill="none" xmlns="http://www.w3.org/2000/svg"><path d="M32.914 13.912a.771.771 0 00.711.055c.23-.098.375-.3.375-.52v-2.336c0-.183-.1-.356-.271-.465l-3.153-2.027.002-.023V3.598c0-.321-.304-.582-.68-.582h-4.702c-.375 0-.678.26-.678.582v1.125L17.437.17a.771.771 0 00-.815 0L.33 10.646a.558.558 0 00-.272.465v2.336c0 .22.146.422.376.52.23.099.505.077.71-.055l.272-.174V25.67H.679c-.375 0-.679.26-.679.581 0 .322.304.582.679.582h32.64c.375 0 .68-.26.68-.582 0-.32-.305-.581-.68-.581h-.677V13.738l.272.174zM25.875 4.18h3.345v3.567l-3.345-2.151V4.18zM1.416 11.402l15.613-10.04 15.613 10.04v.881L17.437 2.506a.756.756 0 00-.408-.116.756.756 0 00-.407.116L1.416 12.283v-.881zM19.689 25.67h-5.38a.497.497 0 00.003-.058v-9.775h5.374v9.775c0 .02.001.039.003.058zm11.596-12.68v12.68H21.04a.5.5 0 00.004-.058V15.255c0-.321-.304-.582-.679-.582h-6.732c-.375 0-.679.26-.679.582v10.357c0 .02.002.039.004.058H2.774V12.99a.507.507 0 00-.014-.117L17.03 3.7l14.268 9.175a.503.503 0 00-.013.116z" fill="#000"/><path d="M15.683 20.427a.749.749 0 00-.479.17.547.547 0 00-.199.412c0 .153.073.303.199.411a.74.74 0 00.48.17.745.745 0 00.48-.17.547.547 0 00.199-.411.55.55 0 00-.2-.412.749.749 0 00-.48-.17zM13.596 9.978c0 1.607 1.527 2.915 3.403 2.915 1.877 0 3.403-1.308 3.403-2.915 0-1.608-1.526-2.916-3.403-2.916-1.876 0-3.403 1.308-3.403 2.916zM17 11.73c-.89 0-1.648-.49-1.929-1.17h3.858c-.28.68-1.039 1.17-1.929 1.17zm1.93-2.334h-3.86c.28-.681 1.04-1.17 1.93-1.17.889 0 1.648.489 1.928 1.17zm-7.998 12.236v-6.377c0-.321-.304-.582-.679-.582H5.491c-.375 0-.679.26-.679.582v6.377c-.366.01-.66.266-.66.581 0 .322.305.582.68.582h6.088c.375 0 .678-.26.678-.582 0-.317-.297-.575-.666-.58zm-1.358-5.795V17H6.17v-1.163h3.404zM6.17 21.632v-3.469h3.404v3.469H6.17zm16.972 1.163h6.089c.374 0 .678-.26.678-.582 0-.316-.295-.573-.663-.58v-6.378c0-.321-.303-.582-.678-.582h-4.763c-.375 0-.679.26-.679.582v6.377c-.367.008-.663.265-.663.581 0 .322.304.582.68.582zm1.342-1.163v-3.469h3.405v3.469h-3.405zm3.405-5.795V17h-3.405v-1.163h3.405z" fill="#000"/></svg>