<svg width="76" height="91" fill="none" xmlns="http://www.w3.org/2000/svg"><path d="M74.985 17.469a3.739 3.739 0 00-1.218-.934 3.687 3.687 0 00-1.484-.36C64.3 15.963 54.199 7.29 47.52 3.887 43.396 1.79 40.673.409 38.627.045a4.194 4.194 0 00-1.252.004c-2.045.364-4.768 1.746-8.89 3.841-6.678 3.4-16.779 12.073-24.761 12.285a3.707 3.707 0 00-1.485.361 3.76 3.76 0 00-1.221.933 4.165 4.165 0 00-1.012 2.947C1.72 55.84 14.225 77.761 36.165 90.502c.57.328 1.203.498 1.833.498a3.7 3.7 0 001.836-.498c21.94-12.74 34.442-34.663 36.16-70.086a4.144 4.144 0 00-1.009-2.947zM57.538 31.4L39.025 59.16c-.664.998-1.708 1.658-2.74 1.658-1.037 0-2.189-.576-2.916-1.314L20.318 46.24a2.338 2.338 0 01-.665-1.636c0-.614.24-1.202.665-1.637l3.225-3.283a2.27 2.27 0 011.61-.673 2.27 2.27 0 011.61.673l8.487 8.623 14.744-22.113a2.283 2.283 0 011.459-.968 2.256 2.256 0 011.706.357l3.774 2.601c.499.346.842.879.956 1.481a2.352 2.352 0 01-.35 1.735z" fill="#FFB800"/></svg>